<svg id="Layer_1" data-name="Layer 1" xmlns="http://www.w3.org/2000/svg" viewBox="0 0 5 5.16"><defs><style>.cls-1{fill:#4e525b;}.cls-2{fill:#444851;fill-rule:evenodd;}</style></defs><title>logos_wa</title><path class="cls-1" d="M2.5.48a2.05,2.05,0,0,1,2.1,2.1,2.11,2.11,0,0,1-2.1,2.1A2.05,2.05,0,0,1,.4,2.58,2.05,2.05,0,0,1,2.5.48m0-.1A2.22,2.22,0,0,0,.3,2.58a2.22,2.22,0,0,0,2.2,2.2,2.22,2.22,0,0,0,2.2-2.2A2.22,2.22,0,0,0,2.5.38Z"/><path class="cls-2" d="M3.7,2.28a1.19,1.19,0,0,0-1.2-1H2.3a1.3,1.3,0,0,0-.9,1.9v.1c-.1.1-.1.3-.2.5h0c.2-.1.4-.1.6-.2h0a1.13,1.13,0,0,0,.8.1A1.1,1.1,0,0,0,3.7,2.28Zm-1,1.3H2.6c-.2,0-.4-.1-.6-.1H1.5c0-.1.1-.2.1-.3v-.1a1.27,1.27,0,0,1,0-1.2,1,1,0,0,1,1.1-.4,1.09,1.09,0,0,1,.8.8A1,1,0,0,1,2.7,3.58Z"/><path class="cls-2" d="M2.8,3.18H2.7a1.34,1.34,0,0,1-.7-.6c-.1,0-.1-.1-.2-.3s0-.3.1-.3h.2c0,.1.1.2.1.3v.1a.1.1,0,0,1-.1.1v.1a.78.78,0,0,0,.4.4h.1l.1-.1h.1c.1,0,.1.1.2.1H3c.1,0,.1,0,.1.1a.77.77,0,0,0-.3.1Z"/></svg>