<svg id="Layer_1" data-name="Layer 1" xmlns="http://www.w3.org/2000/svg" viewBox="0 0 5 5.16"><defs><style>.cls-1{fill:#4e525b;}.cls-2{fill:#444851;fill-rule:evenodd;}</style></defs><title>logos-inst</title><path class="cls-1" d="M2.4.46a2.05,2.05,0,0,1,2.1,2.1,2.05,2.05,0,0,1-2.1,2.1A2.05,2.05,0,0,1,.3,2.56,2.05,2.05,0,0,1,2.4.46m0-.1A2.22,2.22,0,0,0,.2,2.56a2.22,2.22,0,0,0,2.2,2.2,2.22,2.22,0,0,0,2.2-2.2A2.22,2.22,0,0,0,2.4.36Z"/><path class="cls-2" d="M3.2,1.46H1.5a.27.27,0,0,0-.3.3v1.6a.27.27,0,0,0,.3.3H3.2a.27.27,0,0,0,.3-.3V1.66C3.5,1.56,3.4,1.46,3.2,1.46Zm-.2.2c.2,0,.2,0,.2.2s0,.2-.2.2-.2,0-.2-.2S2.8,1.66,3,1.66Zm-.6.4a.43.43,0,0,1,.4.4.46.46,0,0,1-.4.5.43.43,0,0,1-.4-.4C1.9,2.26,2.1,2.06,2.4,2.06Zm.9,1.2c0,.1,0,.1-.1.1H1.8c-.1,0-.1,0-.1-.1v-.8c0-.1,0-.1.1-.1s.1,0,.1.1a.89.89,0,0,0,.5.8.62.62,0,0,0,.8-.5v-.3h0c.2,0,.2,0,.2.1A1.7,1.7,0,0,0,3.3,3.26Z"/></svg>