<svg id="Layer_1" data-name="Layer 1" xmlns="http://www.w3.org/2000/svg" viewBox="0 0 5 5.16"><defs><style>.cls-1{fill:#4e525b;}.cls-2{fill:#444851;}</style></defs><title>logos_fb</title><path class="cls-1" d="M2.54.5a2.05,2.05,0,0,1,2.1,2.1,2.08,2.08,0,0,1-1.9,2.1H2a2,2,0,0,1-1.6-2A2.14,2.14,0,0,1,2.54.5m0-.1A2.22,2.22,0,0,0,.34,2.6,2.34,2.34,0,0,0,2,4.8h.7a2.26,2.26,0,0,0,2-2.2A2.22,2.22,0,0,0,2.54.4Z"/><path class="cls-2" d="M2.84,2.1A.35.35,0,0,1,3,2h.3l.1-.4h-.6c-.2,0-.3,0-.4.1s-.2.1-.3.2-.1.2-.1.4v.2h-.3V3H2V4.6h.7V3h.5V2.5h-.5V2.4A.37.37,0,0,1,2.84,2.1Z"/></svg>