<svg id="Layer_1" data-name="Layer 1" xmlns="http://www.w3.org/2000/svg" viewBox="0 0 5 5.16"><defs><style>.cls-1{fill:#4e525b;}.cls-2{fill:#444851;fill-rule:evenodd;}</style></defs><title>logos-tw</title><path class="cls-1" d="M2.4.46a2.05,2.05,0,0,1,2.1,2.1,2.05,2.05,0,0,1-2.1,2.1A2.05,2.05,0,0,1,.3,2.56,2.11,2.11,0,0,1,2.4.46m0-.1A2.22,2.22,0,0,0,.2,2.56a2.22,2.22,0,0,0,2.2,2.2,2.22,2.22,0,0,0,2.2-2.2A2.22,2.22,0,0,0,2.4.36Z"/><path class="cls-2" d="M1.1,3.36a1.27,1.27,0,0,0,.6-.1.35.35,0,0,0,.2-.1c-.1,0-.2,0-.2-.1a.22.22,0,0,1-.2-.2h.1a.55.55,0,0,1-.3-.5h0c.1,0,.1.1.2.1l-.1-.1a.47.47,0,0,1-.1-.6h0a1.39,1.39,0,0,0,1,.5h.1a.71.71,0,0,1,.3-.6c.2-.1.5-.1.6.1h.1c.1,0,.2-.1.3-.1h0c0,.1-.1.2-.2.3a.37.37,0,0,0,.3-.1h0c-.1,0-.1.1-.2.1h0a1.5,1.5,0,0,1-.4,1.1,1.19,1.19,0,0,1-.9.5,1.32,1.32,0,0,1-1.2-.2C1.2,3.46,1.2,3.36,1.1,3.36Z"/></svg>